<?xml version="1.0" standalone="no"?>
<!DOCTYPE svg PUBLIC "-//W3C//DTD SVG 20010904//EN"
 "http://www.w3.org/TR/2001/REC-SVG-20010904/DTD/svg10.dtd">
<svg version="1.0" xmlns="http://www.w3.org/2000/svg"
 width="1600.000000pt" height="1600.000000pt" viewBox="0 0 1600.000000 1600.000000"
 preserveAspectRatio="xMidYMid meet">
<metadata>
Created by potrace 1.14, written by Peter Selinger 2001-2017
</metadata>
<g transform="translate(0.000000,1600.000000) scale(0.100000,-0.100000)"
fill="#000000" stroke="none">
<path d="M8830 15659 c-110 -9 -164 -18 -266 -44 -259 -67 -506 -203 -699
-387 -332 -315 -507 -728 -500 -1180 3 -166 7 -204 42 -353 107 -458 420 -849
848 -1063 143 -71 325 -128 471 -147 22 -3 55 -7 74 -10 40 -5 260 -6 305 -1
137 16 146 18 252 45 215 55 414 153 588 290 89 70 220 201 276 277 24 33 46
61 50 64 3 3 29 44 57 92 117 194 191 409 219 633 10 75 9 322 0 393 -37 273
-152 553 -316 767 -63 83 -223 243 -301 302 -321 242 -706 355 -1100 322z"/>
<path d="M7420 11825 c-135 -18 -146 -21 -230 -43 -362 -99 -584 -293 -706
-619 -13 -34 -26 -72 -28 -85 -3 -13 -10 -41 -15 -63 -9 -39 -12 -56 -30 -185
-9 -65 -7 -563 3 -610 2 -14 7 -65 11 -113 3 -48 8 -98 11 -110 2 -12 9 -60
14 -107 14 -108 20 -149 26 -180 2 -14 6 -41 9 -60 2 -19 16 -98 30 -175 15
-77 29 -151 31 -165 2 -14 11 -56 20 -95 9 -38 18 -79 20 -90 2 -11 15 -72 30
-135 14 -63 28 -126 30 -139 10 -48 116 -459 160 -616 156 -555 217 -706 370
-901 106 -136 258 -262 434 -362 19 -10 98 -57 175 -102 77 -46 151 -90 165
-97 14 -8 39 -22 55 -32 35 -21 516 -305 560 -331 17 -9 131 -77 255 -150 124
-73 241 -142 260 -152 19 -11 40 -24 45 -28 6 -4 27 -17 48 -29 60 -34 99 -56
155 -89 28 -17 52 -29 52 -26 0 4 6 1 14 -6 26 -21 113 -38 192 -38 255 0 496
184 559 428 45 174 11 348 -94 492 -72 96 -95 112 -566 388 -98 57 -624 368
-645 381 -13 8 -122 72 -408 239 -51 30 -100 60 -110 65 -206 120 -252 148
-252 152 0 2 -25 91 -56 196 -31 106 -71 246 -90 312 -19 66 -45 156 -58 200
-13 44 -41 139 -62 210 -59 206 -101 346 -119 395 -21 58 -14 155 16 218 126
259 488 240 585 -30 8 -24 44 -142 80 -263 35 -121 70 -240 79 -265 8 -25 44
-146 80 -270 36 -124 70 -236 76 -250 6 -16 38 -41 87 -69 42 -24 84 -50 92
-56 8 -7 40 -26 70 -42 43 -24 207 -120 310 -182 8 -6 65 -39 126 -75 l111
-66 742 0 741 0 2 798 3 797 24 -40 c14 -22 28 -42 31 -45 3 -3 25 -36 50 -75
25 -38 47 -72 50 -75 3 -3 21 -30 40 -60 19 -30 38 -59 43 -65 12 -14 141
-209 175 -264 15 -24 32 -48 37 -55 6 -6 30 -42 55 -81 24 -38 47 -72 50 -75
3 -3 30 -43 61 -90 132 -202 254 -385 259 -390 3 -3 32 -45 64 -95 32 -49 73
-111 90 -137 l31 -47 693 -1 693 0 -227 338 c-358 530 -465 688 -791 1167
-280 410 -341 499 -350 511 -4 5 -12 18 -18 27 -5 9 -47 69 -92 134 -45 65
-110 159 -144 208 -34 50 -105 151 -157 225 -53 74 -116 164 -140 200 -123
177 -417 576 -479 649 -104 126 -247 218 -438 283 -60 20 -191 54 -243 62 -81
13 -120 19 -142 24 -14 3 -603 7 -1310 8 -1006 1 -1306 -1 -1380 -11z"/>
<path d="M10461 7313 c132 -136 241 -319 289 -482 23 -77 23 -80 41 -175 25
-142 13 -364 -30 -509 l-20 -67 1547 0 c1497 0 1549 1 1622 20 221 57 387 212
460 430 29 83 34 231 13 327 -25 116 -87 227 -173 313 -79 78 -148 121 -260
162 l-65 23 -1735 3 -1735 2 46 -47z"/>
<path d="M6931 6210 l3 -450 439 2 440 3 78 125 c43 69 75 128 71 132 -4 3
-56 35 -117 71 -648 379 -756 445 -856 528 -26 22 -50 39 -53 39 -4 0 -6 -203
-5 -450z"/>
<path d="M1458 6075 c-2 -1 -27 -6 -57 -9 -155 -19 -347 -75 -488 -144 -91
-44 -193 -104 -234 -136 -15 -12 -39 -30 -55 -41 -39 -28 -134 -112 -162 -143
-13 -15 -41 -45 -61 -67 -178 -192 -338 -523 -376 -776 -2 -19 -9 -60 -13 -92
-12 -79 -7 -347 8 -432 37 -215 114 -427 202 -562 16 -23 28 -45 28 -49 0 -18
145 -197 221 -273 77 -77 255 -221 273 -221 5 0 21 -10 38 -21 43 -31 192
-103 276 -133 174 -62 323 -88 521 -91 507 -7 947 203 1282 613 128 156 261
442 303 652 27 137 29 154 31 309 3 266 -48 499 -159 721 -65 129 -97 179
-203 318 -24 30 -141 150 -189 192 -207 183 -479 311 -779 367 -66 12 -397 27
-407 18z"/>
<path d="M8473 5613 c-27 -43 -108 -171 -179 -285 l-129 -208 -1705 -1 c-938
0 -1732 -2 -1765 -4 -423 -28 -840 -309 -1035 -695 -37 -73 -104 -250 -95
-250 2 0 0 -11 -5 -25 -36 -96 -47 -375 -19 -519 25 -134 29 -149 38 -171 5
-11 17 -42 26 -70 43 -124 156 -306 256 -412 202 -214 413 -328 739 -399 19
-5 951 -9 2070 -11 2216 -3 2101 -6 2227 53 246 114 391 346 378 604 -5 113
-11 142 -46 224 -30 71 -76 141 -132 203 -70 78 -233 165 -333 179 -27 3 -58
8 -69 10 -11 2 -684 4 -1495 4 -1070 0 -1487 4 -1520 12 -206 52 -304 304
-186 479 41 61 84 96 154 125 l57 24 1550 -3 c853 -2 1566 -6 1585 -11 233
-50 383 -113 541 -226 220 -157 382 -373 467 -625 45 -134 63 -235 67 -380 3
-119 0 -160 -20 -280 -12 -70 -63 -217 -108 -308 l-43 -87 2706 2 c2609 3
2707 4 2760 22 30 10 55 17 55 16 0 -1 31 16 69 37 81 46 148 101 199 163 38
45 114 188 123 232 2 12 9 43 14 68 14 70 4 226 -19 300 -67 209 -235 374
-441 433 -61 18 -107 23 -255 32 -55 3 -127 8 -160 10 -33 2 -105 7 -160 10
-55 3 -122 7 -150 10 -27 2 -102 7 -165 10 -63 4 -133 8 -155 10 -22 2 -85 6
-140 9 -55 4 -127 8 -160 11 -113 9 -233 16 -480 30 -49 3 -115 7 -145 10 -30
2 -98 7 -150 10 -52 3 -124 8 -160 10 -62 5 -101 7 -305 20 -49 3 -118 8 -151
10 -34 3 -104 7 -155 10 -52 3 -123 7 -159 10 -36 3 -103 7 -150 10 -47 3
-119 7 -160 10 -41 3 -111 7 -155 10 -44 3 -107 7 -140 10 -33 2 -105 7 -160
10 -55 3 -127 7 -160 10 -65 5 -169 12 -310 20 -49 2 -122 7 -161 10 -39 4
-102 8 -140 10 -111 6 -255 15 -309 20 -27 2 -104 6 -170 10 -108 6 -176 13
-181 18 -2 2 69 204 86 242 4 11 18 49 30 85 12 36 26 74 31 85 4 11 54 146
109 300 56 154 108 298 117 320 8 22 37 101 63 175 27 74 58 159 70 189 11 29
20 55 18 56 -2 2 -32 -24 -68 -57 -88 -82 -188 -151 -292 -204 -91 -46 -242
-100 -306 -110 -20 -3 -57 -10 -82 -14 -67 -13 -276 -9 -355 6 -178 33 -359
117 -635 293 -14 8 -45 26 -70 39 -25 14 -52 31 -61 38 -8 8 -20 14 -25 14 -5
0 -20 9 -34 20 -14 11 -28 20 -32 20 -3 0 -28 -35 -55 -77z"/>
<path d="M859 2556 c-2 -2 -23 -6 -46 -9 -86 -12 -218 -54 -280 -89 -18 -10
-50 -27 -70 -39 -143 -81 -299 -255 -375 -420 -32 -68 -64 -174 -77 -254 -5
-35 -10 -414 -10 -902 l-1 -843 8000 0 8001 0 -3 708 c-4 783 0 734 -72 882
-53 111 -186 231 -311 281 -113 46 289 43 -6095 46 l-5975 3 -25 28 c-14 15
-70 81 -125 147 -120 144 -192 218 -265 272 -73 53 -191 115 -271 141 -150 50
-155 50 -1105 51 -490 1 -892 -1 -895 -3z"/>
</g>
</svg>
